<?xml version="1.0" encoding="UTF-8" standalone="no"?>
<svg
   xmlns:dc="http://purl.org/dc/elements/1.1/"
   xmlns:cc="http://creativecommons.org/ns#"
   xmlns:rdf="http://www.w3.org/1999/02/22-rdf-syntax-ns#"
   xmlns:svg="http://www.w3.org/2000/svg"
   xmlns="http://www.w3.org/2000/svg"
   xmlns:sodipodi="http://sodipodi.sourceforge.net/DTD/sodipodi-0.dtd"
   xmlns:inkscape="http://www.inkscape.org/namespaces/inkscape"
   viewBox="0 0 32 32"
   version="1.1"
   id="svg51"
   sodipodi:docname="x-pdf.svg"
   inkscape:version="0.92.2 2405546, 2018-03-11"
   width="32"
   height="32">
  <metadata
     id="metadata55">
    <rdf:RDF>
      <cc:Work
         rdf:about="">
        <dc:format>image/svg+xml</dc:format>
        <dc:type
           rdf:resource="http://purl.org/dc/dcmitype/StillImage" />
        <dc:title></dc:title>
      </cc:Work>
    </rdf:RDF>
  </metadata>
  <sodipodi:namedview
     pagecolor="#ffffff"
     bordercolor="#666666"
     borderopacity="1"
     objecttolerance="10"
     gridtolerance="10"
     guidetolerance="10"
     inkscape:pageopacity="0"
     inkscape:pageshadow="2"
     inkscape:window-width="1356"
     inkscape:window-height="707"
     id="namedview53"
     showgrid="false"
     inkscape:zoom="4.9166667"
     inkscape:cx="-43.016949"
     inkscape:cy="24"
     inkscape:window-x="5"
     inkscape:window-y="17"
     inkscape:window-maximized="1"
     inkscape:current-layer="svg51" />
  <defs
     id="defs7">
    <linearGradient
       id="linearGradient3764"
       x1="1"
       x2="47"
       gradientUnits="userSpaceOnUse"
       gradientTransform="matrix(0,-0.88888889,0.88888889,0,-1.1943907,47.999998)">
      <stop
         style="stop-color:#bf1515;stop-opacity:1"
         id="stop2" />
      <stop
         offset="1"
         style="stop-color:#d01717;stop-opacity:1"
         id="stop4" />
    </linearGradient>
  </defs>
  <g
     id="g15"
     transform="matrix(0.68088004,0,0,0.68085107,-0.68088004,-0.6808507)">
    <path
       d="m 36.31,5 c 5.859,4.062 9.688,10.831 9.688,18.5 0,12.426 -10.07,22.5 -22.5,22.5 -7.669,0 -14.438,-3.828 -18.5,-9.688 1.037,1.822 2.306,3.499 3.781,4.969 4.085,3.712 9.514,5.969 15.469,5.969 12.703,0 23,-10.298 23,-23 0,-5.954 -2.256,-11.384 -5.969,-15.469 C 39.81,7.306 38.132,6.037 36.31,5 Z m 4.969,3.781 c 3.854,4.113 6.219,9.637 6.219,15.719 0,12.703 -10.297,23 -23,23 -6.081,0 -11.606,-2.364 -15.719,-6.219 4.16,4.144 9.883,6.719 16.219,6.719 12.703,0 23,-10.298 23,-23 0,-6.335 -2.575,-12.06 -6.719,-16.219 z"
       style="opacity:0.05"
       id="path9"
       inkscape:connector-curvature="0" />
    <path
       d="m 41.28,8.781 c 3.712,4.085 5.969,9.514 5.969,15.469 0,12.703 -10.297,23 -23,23 -5.954,0 -11.384,-2.256 -15.469,-5.969 4.113,3.854 9.637,6.219 15.719,6.219 12.703,0 23,-10.298 23,-23 0,-6.081 -2.364,-11.606 -6.219,-15.719 z"
       style="opacity:0.1"
       id="path11"
       inkscape:connector-curvature="0" />
    <path
       d="M 31.25,2.375 C 39.865,5.529 46,13.792 46,23.505 c 0,12.426 -10.07,22.5 -22.5,22.5 -9.708,0 -17.971,-6.135 -21.12,-14.75 a 23,23 0 0 0 44.875,-7 23,23 0 0 0 -16,-21.875 z"
       style="opacity:0.2"
       id="path13"
       inkscape:connector-curvature="0" />
  </g>
  <g
     id="g19"
     transform="matrix(0.76599004,0,0,0.76595745,0.23400996,-4.765957)">
    <path
       d="m 20.138945,6.2222221 c 11.291555,0 20.444444,9.1528889 20.444444,20.4444449 0,11.291555 -9.152889,20.444444 -20.444444,20.444444 -11.291556,0 -20.444445,-9.152889 -20.444445,-20.444444 0,-11.291556 9.152889,-20.4444449 20.444445,-20.4444449 z"
       style="opacity:1;fill:url(#linearGradient3764);fill-opacity:1;stroke-width:0.8888889"
       id="path17"
       inkscape:connector-curvature="0" />
  </g>
  <g
     id="g45"
     transform="translate(0,-16)">
    <g
       id="g43">
      <!-- color: #d01717 -->
      <g
         id="g41"
         transform="translate(-17.869,1.849)" />
    </g>
  </g>
  <g
     id="g49"
     transform="matrix(0.68088004,0,0,0.68085107,-0.68088004,-0.6808507)">
    <path
       d="m 40.03,7.531 c 3.712,4.084 5.969,9.514 5.969,15.469 0,12.703 -10.297,23 -23,23 C 17.045,46 11.615,43.744 7.53,40.031 11.708,44.322 17.54,47 23.999,47 c 12.703,0 23,-10.298 23,-23 0,-6.462 -2.677,-12.291 -6.969,-16.469 z"
       style="opacity:0.1"
       id="path47"
       inkscape:connector-curvature="0" />
  </g>
  <g
     style="fill:#ffffff;fill-opacity:1"
     inkscape:label="Layer 1"
     id="layer1-9"
     transform="matrix(0.93006453,0,0,0.94174812,-60.849271,-954.77039)">
    <g
       style="fill:#ffffff;fill-opacity:1"
       transform="translate(-384.28833,504.67735)"
       id="layer1-8"
       inkscape:label="Capa 1">
      <g
         style="fill:#ffffff;fill-opacity:1"
         transform="matrix(1.5263052,0,0,1.5263052,376.31698,-1040.1258)"
         id="g4231">
        <g
           style="fill:#ffffff;fill-opacity:1"
           transform="translate(-0.98298832)"
           id="g4178">
          <path
             d="m 68.517279,1026.7252 c -0.309087,-0.3045 -0.994584,-0.4658 -2.037707,-0.4795 -0.706106,-0.011 -1.555981,0.054 -2.449902,0.1795 -0.400274,-0.2309 -0.812771,-0.4822 -1.136651,-0.7849 -0.871132,-0.8134 -1.59829,-1.9426 -2.051404,-3.1842 0.02952,-0.116 0.05465,-0.2179 0.07805,-0.3219 0,0 0.490684,-2.7872 0.360794,-3.7294 -0.01787,-0.1292 -0.02887,-0.1668 -0.06362,-0.2673 l -0.04262,-0.109 c -0.133456,-0.3078 -0.395148,-0.6339 -0.805429,-0.6162 l -0.240602,-0.011 -0.0066,-10e-5 c -0.457506,0 -0.830389,0.234 -0.928274,0.5837 -0.297524,1.0969 0.0094,2.7379 0.565827,4.8634 l -0.142413,0.3462 c -0.398366,0.9711 -0.897574,1.9492 -1.338033,2.8119 l -0.05727,0.1124 c -0.463377,0.9069 -0.883832,1.6767 -1.264978,2.3288 l -0.393539,0.2081 c -0.02866,0.015 -0.70311,0.3718 -0.861308,0.4675 -1.342033,0.8013 -2.231344,1.711 -2.378889,2.4328 -0.04697,0.2303 -0.012,0.5251 0.226774,0.6617 l 0.380625,0.1915 c 0.165111,0.083 0.339225,0.1246 0.5176,0.1246 0.955844,0 2.065538,-1.1907 3.594209,-3.8585 1.764968,-0.5747 3.774449,-1.0522 5.535592,-1.3156 1.342123,0.7557 2.99281,1.2805 4.034666,1.2805 0.184987,0 0.344446,-0.018 0.474032,-0.052 0.199816,-0.053 0.368229,-0.1669 0.470902,-0.3214 0.202115,-0.3043 0.243121,-0.7232 0.188242,-1.1523 -0.01635,-0.1272 -0.118063,-0.2847 -0.228077,-0.3921 z m -14.276771,5.0861 c 0.174288,-0.4766 0.864263,-1.4188 1.884421,-2.2548 0.06414,-0.052 0.222122,-0.2 0.366796,-0.3375 -1.066816,1.7015 -1.781231,2.3797 -2.251217,2.5923 z m 6.042325,-13.9144 c 0.307265,0 0.482032,0.7746 0.496555,1.5006 0.01449,0.7261 -0.155328,1.2357 -0.365969,1.6127 -0.174462,-0.5582 -0.25878,-1.438 -0.25878,-2.0135 0,0 -0.01282,-1.0998 0.128194,-1.0998 z m -1.802452,9.9157 c 0.214033,-0.3831 0.436719,-0.7871 0.664277,-1.2157 0.554693,-1.049 0.905009,-1.8697 1.165919,-2.5445 0.518906,0.9442 1.165137,1.7467 1.924823,2.3898 0.09475,0.08 0.195155,0.1608 0.300605,0.2412 -1.544845,0.3056 -2.880051,0.6774 -4.055624,1.1292 z m 9.740071,-0.086 c -0.0941,0.058 -0.36362,0.093 -0.536995,0.093 -0.559519,0 -1.251805,-0.2558 -2.222304,-0.6719 0.372883,-0.028 0.71481,-0.042 1.021423,-0.042 0.561213,0 0.727461,0 1.276237,0.1375 0.548783,0.14 0.555697,0.4243 0.461639,0.4831 z"
             id="path5"
             inkscape:connector-curvature="0"
             sodipodi:nodetypes="cccccccccccccccccccccccsccsccccccccscccscccccccscssc"
             style="fill:#ffffff;fill-opacity:1" />
        </g>
      </g>
    </g>
  </g>
</svg>
